# MagicaVoxel @ Ephtracy

# group
o 

# material
mtllib Test.mtl
usemtl palette

# normals
vn -1 0 0
vn 1 0 0
vn 0 0 1
vn 0 0 -1
vn 0 -1 0
vn 0 1 0

# texcoords
vt 0.0292969 0.5
vt 0.0605469 0.5
vt 0.224609 0.5
vt 0.232422 0.5
vt 0.923828 0.5
vt 0.935547 0.5
vt 0.974609 0.5
vt 0.994141 0.5

# verts
v -0.6 0.6 0
v -0.6 0.6 -0.1
v -0.6 0.7 0
v -0.6 0.7 -0.1
v -0.4 1.3 0
v -0.4 1.3 -0.1
v -0.4 1.5 0
v -0.4 1.5 -0.1
v -0.3 1.2 0
v -0.3 1.2 -0.1
v -0.3 1.3 0
v -0.3 1.3 -0.1
v -0.2 0.3 0.1
v -0.2 0.3 -0.2
v -0.2 0.4 0.1
v -0.2 0.4 -0.2
v -0.2 0.6 0.1
v -0.2 0.6 0
v -0.2 0.6 -0.1
v -0.2 0.6 -0.2
v -0.2 0.7 0.1
v -0.2 0.7 0
v -0.2 0.7 -0.1
v -0.2 0.7 -0.2
v -0.2 0.8 0.1
v -0.2 0.8 -0.2
v -0.2 0.8 -0.3
v -0.2 0.9 -0.2
v -0.2 0.9 -0.3
v -0.2 1.1 0.1
v -0.2 1.1 0
v -0.2 1.1 -0.1
v -0.2 1.1 -0.2
v -0.2 1.2 0
v -0.2 1.2 -0.1
v -0.1 0 0.1
v -0.1 0 -0.1
v -0.1 0.1 0.1
v -0.1 0.1 0
v -0.1 0.2 0
v -0.1 0.2 -0.1
v -0.1 0.3 0.2
v -0.1 0.3 0.1
v -0.1 0.3 0
v -0.1 0.3 -0.1
v -0.1 0.3 -0.2
v -0.1 0.3 -0.3
v -0.1 0.4 0.2
v -0.1 0.4 0.1
v -0.1 0.4 -0.2
v -0.1 0.4 -0.3
v -0.1 0.6 0.2
v -0.1 0.6 0.1
v -0.1 0.6 -0.2
v -0.1 0.6 -0.3
v -0.1 0.7 0.2
v -0.1 0.7 0.1
v -0.1 0.7 -0.2
v -0.1 0.7 -0.3
v -0.1 0.9 0.2
v -0.1 0.9 0.1
v -0.1 0.9 -0.2
v -0.1 0.9 -0.3
v -0.1 1 0.2
v -0.1 1 0.1
v -0.1 1.1 0.1
v -0.1 1.1 0
v -0.1 1.1 -0.1
v -0.1 1.1 -0.2
v -0.1 1.1 -0.3
v -0.1 1.2 0.1
v -0.1 1.2 0
v -0.1 1.2 -0.1
v -0.1 1.2 -0.2
v 0 0.4 0.2
v 0 0.4 0.1
v 0 0.4 -0.2
v 0 0.4 -0.3
v 0 0.6 0.2
v 0 0.6 0.1
v 0 0.6 -0.2
v 0 0.6 -0.3
v 0 1 0.2
v 0 1 0.1
v 0 1.1 0.2
v 0 1.1 0.1
v 0 1.2 0
v 0 1.2 -0.1
v 0 1.3 0
v 0 1.3 -0.1
v 0.2 0 0.1
v 0.2 0 -0.1
v 0.2 0.1 0.1
v 0.2 0.1 0
v 0.2 0.2 0
v 0.2 0.2 -0.1
v 0.2 0.3 0.2
v 0.2 0.3 0.1
v 0.2 0.3 0
v 0.2 0.3 -0.1
v 0.2 0.3 -0.2
v 0.2 0.3 -0.3
v 0.2 0.4 0.2
v 0.2 0.4 0.1
v 0.2 0.4 -0.2
v 0.2 0.4 -0.3
v 0.2 0.6 0.2
v 0.2 0.6 0.1
v 0.2 0.6 -0.2
v 0.2 0.6 -0.3
v 0.2 0.7 0.2
v 0.2 0.7 0.1
v 0.2 0.7 -0.2
v 0.2 0.7 -0.3
v 0.3 1.2 0
v 0.3 1.2 -0.1
v 0.3 1.3 0
v 0.3 1.3 -0.1
v 0.4 1.3 0
v 0.4 1.3 -0.1
v 0.4 1.4 0
v 0.4 1.4 -0.1
v 0.5 1.4 0
v 0.5 1.4 -0.1
v 0.5 1.5 0
v 0.5 1.5 -0.1
v -0.3 1.4 0
v -0.3 1.4 -0.1
v -0.3 1.5 0
v -0.3 1.5 -0.1
v -0.2 1.3 0
v -0.2 1.3 -0.1
v -0.2 1.4 0
v -0.2 1.4 -0.1
v -0.1 1.2 0
v -0.1 1.2 -0.1
v -0.1 1.3 0
v -0.1 1.3 -0.1
v 0 0 0.1
v 0 0 -0.1
v 0 0.1 0.1
v 0 0.1 0
v 0 0.2 0
v 0 0.2 -0.1
v 0 0.3 0.2
v 0 0.3 0.1
v 0 0.3 0
v 0 0.3 -0.1
v 0 0.3 -0.2
v 0 0.3 -0.3
v 0 0.4 0.2
v 0 0.4 0.1
v 0 0.4 -0.2
v 0 0.4 -0.3
v 0 0.6 0.2
v 0 0.6 0.1
v 0 0.6 -0.2
v 0 0.6 -0.3
v 0 0.7 0.2
v 0 0.7 0.1
v 0 0.7 -0.2
v 0 0.7 -0.3
v 0.2 0.4 0.2
v 0.2 0.4 0.1
v 0.2 0.4 -0.2
v 0.2 0.4 -0.3
v 0.2 0.6 0.2
v 0.2 0.6 0.1
v 0.2 0.6 -0.2
v 0.2 0.6 -0.3
v 0.2 1 0.2
v 0.2 1 0.1
v 0.2 1.1 0.2
v 0.2 1.1 0.1
v 0.2 1.2 0
v 0.2 1.2 -0.1
v 0.2 1.3 0
v 0.2 1.3 -0.1
v 0.3 0 0.1
v 0.3 0 -0.1
v 0.3 0.1 0.1
v 0.3 0.1 0
v 0.3 0.2 0
v 0.3 0.2 -0.1
v 0.3 0.3 0.2
v 0.3 0.3 0.1
v 0.3 0.3 0
v 0.3 0.3 -0.1
v 0.3 0.3 -0.2
v 0.3 0.3 -0.3
v 0.3 0.4 0.2
v 0.3 0.4 0.1
v 0.3 0.4 -0.2
v 0.3 0.4 -0.3
v 0.3 0.6 0.2
v 0.3 0.6 0.1
v 0.3 0.6 -0.2
v 0.3 0.6 -0.3
v 0.3 0.7 0.2
v 0.3 0.7 0.1
v 0.3 0.7 -0.2
v 0.3 0.7 -0.3
v 0.3 0.9 0.2
v 0.3 0.9 0.1
v 0.3 0.9 -0.2
v 0.3 0.9 -0.3
v 0.3 1 0.2
v 0.3 1 0.1
v 0.3 1.1 0.1
v 0.3 1.1 0
v 0.3 1.1 -0.1
v 0.3 1.1 -0.2
v 0.3 1.1 -0.3
v 0.3 1.2 0.1
v 0.3 1.2 0
v 0.3 1.2 -0.1
v 0.3 1.2 -0.2
v 0.4 0.3 0.1
v 0.4 0.3 -0.2
v 0.4 0.4 0.1
v 0.4 0.4 -0.2
v 0.4 0.6 0.1
v 0.4 0.6 0
v 0.4 0.6 -0.1
v 0.4 0.6 -0.2
v 0.4 0.7 0.1
v 0.4 0.7 0
v 0.4 0.7 -0.1
v 0.4 0.7 -0.2
v 0.4 0.8 0.1
v 0.4 0.8 -0.2
v 0.4 0.8 -0.3
v 0.4 0.9 -0.2
v 0.4 0.9 -0.3
v 0.4 1.1 0.1
v 0.4 1.1 0
v 0.4 1.1 -0.1
v 0.4 1.1 -0.2
v 0.4 1.2 0
v 0.4 1.2 -0.1
v 0.5 1.2 0
v 0.5 1.2 -0.1
v 0.5 1.3 0
v 0.5 1.3 -0.1
v 0.6 1.3 0
v 0.6 1.3 -0.1
v 0.6 1.5 0
v 0.6 1.5 -0.1
v 0.8 0.6 0
v 0.8 0.6 -0.1
v 0.8 0.7 0
v 0.8 0.7 -0.1
v -0.1 0.3 0.2
v -0.1 0.4 0.2
v -0.1 0.6 0.2
v -0.1 0.7 0.2
v -0.1 0.9 0.2
v -0.1 1 0.2
v 0 0.3 0.2
v 0 0.4 0.2
v 0 0.6 0.2
v 0 0.7 0.2
v 0 1 0.2
v 0 1.1 0.2
v 0.2 0.3 0.2
v 0.2 0.4 0.2
v 0.2 0.6 0.2
v 0.2 0.7 0.2
v 0.2 1 0.2
v 0.2 1.1 0.2
v 0.3 0.3 0.2
v 0.3 0.4 0.2
v 0.3 0.6 0.2
v 0.3 0.7 0.2
v 0.3 0.9 0.2
v 0.3 1 0.2
v -0.2 0.3 0.1
v -0.2 0.4 0.1
v -0.2 0.6 0.1
v -0.2 0.7 0.1
v -0.2 0.8 0.1
v -0.2 1.1 0.1
v -0.1 0 0.1
v -0.1 0.1 0.1
v -0.1 0.3 0.1
v -0.1 0.4 0.1
v -0.1 0.6 0.1
v -0.1 0.7 0.1
v -0.1 0.8 0.1
v -0.1 0.9 0.1
v -0.1 1 0.1
v -0.1 1.1 0.1
v -0.1 1.2 0.1
v 0 0 0.1
v 0 0.1 0.1
v 0 0.3 0.1
v 0 0.4 0.1
v 0 0.6 0.1
v 0 0.7 0.1
v 0 0.8 0.1
v 0 0.9 0.1
v 0 1 0.1
v 0 1.1 0.1
v 0.2 0 0.1
v 0.2 0.1 0.1
v 0.2 0.3 0.1
v 0.2 0.4 0.1
v 0.2 0.6 0.1
v 0.2 0.7 0.1
v 0.2 0.8 0.1
v 0.2 0.9 0.1
v 0.2 1 0.1
v 0.2 1.1 0.1
v 0.3 0 0.1
v 0.3 0.1 0.1
v 0.3 0.3 0.1
v 0.3 0.4 0.1
v 0.3 0.6 0.1
v 0.3 0.7 0.1
v 0.3 0.8 0.1
v 0.3 0.9 0.1
v 0.3 1 0.1
v 0.3 1.1 0.1
v 0.3 1.2 0.1
v 0.4 0.3 0.1
v 0.4 0.4 0.1
v 0.4 0.6 0.1
v 0.4 0.7 0.1
v 0.4 0.8 0.1
v 0.4 1.1 0.1
v -0.6 0.6 0
v -0.6 0.7 0
v -0.5 0.6 0
v -0.5 0.7 0
v -0.4 1.3 0
v -0.4 1.5 0
v -0.3 1.2 0
v -0.3 1.3 0
v -0.3 1.4 0
v -0.3 1.5 0
v -0.2 0.6 0
v -0.2 0.7 0
v -0.2 1.1 0
v -0.2 1.2 0
v -0.2 1.3 0
v -0.2 1.4 0
v -0.1 0.1 0
v -0.1 0.2 0
v -0.1 0.3 0
v -0.1 1.1 0
v -0.1 1.2 0
v -0.1 1.3 0
v 0 0.1 0
v 0 0.2 0
v 0 0.3 0
v 0 1.2 0
v 0 1.3 0
v 0.2 0.1 0
v 0.2 0.2 0
v 0.2 0.3 0
v 0.2 1.2 0
v 0.2 1.3 0
v 0.3 0.1 0
v 0.3 0.2 0
v 0.3 0.3 0
v 0.3 1.1 0
v 0.3 1.2 0
v 0.3 1.3 0
v 0.4 0.6 0
v 0.4 0.7 0
v 0.4 1.1 0
v 0.4 1.2 0
v 0.4 1.3 0
v 0.4 1.4 0
v 0.5 1.2 0
v 0.5 1.3 0
v 0.5 1.4 0
v 0.5 1.5 0
v 0.6 1.3 0
v 0.6 1.5 0
v 0.7 0.6 0
v 0.7 0.7 0
v 0.8 0.6 0
v 0.8 0.7 0
v -0.6 0.6 -0.1
v -0.6 0.7 -0.1
v -0.5 0.6 -0.1
v -0.5 0.7 -0.1
v -0.4 1.3 -0.1
v -0.4 1.5 -0.1
v -0.3 1.2 -0.1
v -0.3 1.3 -0.1
v -0.3 1.4 -0.1
v -0.3 1.5 -0.1
v -0.2 0.6 -0.1
v -0.2 0.7 -0.1
v -0.2 1.1 -0.1
v -0.2 1.2 -0.1
v -0.2 1.3 -0.1
v -0.2 1.4 -0.1
v -0.1 0 -0.1
v -0.1 0.2 -0.1
v -0.1 0.3 -0.1
v -0.1 1.1 -0.1
v -0.1 1.2 -0.1
v -0.1 1.3 -0.1
v 0 0 -0.1
v 0 0.2 -0.1
v 0 0.3 -0.1
v 0 1.2 -0.1
v 0 1.3 -0.1
v 0.2 0 -0.1
v 0.2 0.2 -0.1
v 0.2 0.3 -0.1
v 0.2 1.2 -0.1
v 0.2 1.3 -0.1
v 0.3 0 -0.1
v 0.3 0.2 -0.1
v 0.3 0.3 -0.1
v 0.3 1.1 -0.1
v 0.3 1.2 -0.1
v 0.3 1.3 -0.1
v 0.4 0.6 -0.1
v 0.4 0.7 -0.1
v 0.4 1.1 -0.1
v 0.4 1.2 -0.1
v 0.4 1.3 -0.1
v 0.4 1.4 -0.1
v 0.5 1.2 -0.1
v 0.5 1.3 -0.1
v 0.5 1.4 -0.1
v 0.5 1.5 -0.1
v 0.6 1.3 -0.1
v 0.6 1.5 -0.1
v 0.7 0.6 -0.1
v 0.7 0.7 -0.1
v 0.8 0.6 -0.1
v 0.8 0.7 -0.1
v -0.2 0.3 -0.2
v -0.2 0.4 -0.2
v -0.2 0.6 -0.2
v -0.2 0.7 -0.2
v -0.2 0.8 -0.2
v -0.2 0.9 -0.2
v -0.2 1.1 -0.2
v -0.1 0.3 -0.2
v -0.1 0.4 -0.2
v -0.1 0.6 -0.2
v -0.1 0.7 -0.2
v -0.1 0.8 -0.2
v -0.1 0.9 -0.2
v -0.1 1.1 -0.2
v -0.1 1.2 -0.2
v 0 0.3 -0.2
v 0 0.4 -0.2
v 0 0.6 -0.2
v 0 0.7 -0.2
v 0.2 0.3 -0.2
v 0.2 0.4 -0.2
v 0.2 0.6 -0.2
v 0.2 0.7 -0.2
v 0.3 0.3 -0.2
v 0.3 0.4 -0.2
v 0.3 0.6 -0.2
v 0.3 0.7 -0.2
v 0.3 0.8 -0.2
v 0.3 0.9 -0.2
v 0.3 1.1 -0.2
v 0.3 1.2 -0.2
v 0.4 0.3 -0.2
v 0.4 0.4 -0.2
v 0.4 0.6 -0.2
v 0.4 0.7 -0.2
v 0.4 0.8 -0.2
v 0.4 0.9 -0.2
v 0.4 1.1 -0.2
v -0.2 0.8 -0.3
v -0.2 0.9 -0.3
v -0.1 0.3 -0.3
v -0.1 0.4 -0.3
v -0.1 0.6 -0.3
v -0.1 0.7 -0.3
v -0.1 0.9 -0.3
v -0.1 1.1 -0.3
v 0 0.3 -0.3
v 0 0.4 -0.3
v 0 0.6 -0.3
v 0 0.7 -0.3
v 0.2 0.3 -0.3
v 0.2 0.4 -0.3
v 0.2 0.6 -0.3
v 0.2 0.7 -0.3
v 0.3 0.3 -0.3
v 0.3 0.4 -0.3
v 0.3 0.6 -0.3
v 0.3 0.7 -0.3
v 0.3 0.9 -0.3
v 0.3 1.1 -0.3
v 0.4 0.8 -0.3
v 0.4 0.9 -0.3
v -0.1 0 0.1
v 0 0 0.1
v 0.2 0 0.1
v 0.3 0 0.1
v -0.1 0 -0.1
v 0 0 -0.1
v 0.2 0 -0.1
v 0.3 0 -0.1
v -0.1 0.3 0.2
v 0 0.3 0.2
v 0.2 0.3 0.2
v 0.3 0.3 0.2
v -0.2 0.3 0.1
v -0.1 0.3 0.1
v 0 0.3 0.1
v 0.2 0.3 0.1
v 0.3 0.3 0.1
v 0.4 0.3 0.1
v -0.1 0.3 0
v 0 0.3 0
v 0.2 0.3 0
v 0.3 0.3 0
v -0.1 0.3 -0.1
v 0 0.3 -0.1
v 0.2 0.3 -0.1
v 0.3 0.3 -0.1
v -0.2 0.3 -0.2
v -0.1 0.3 -0.2
v 0 0.3 -0.2
v 0.2 0.3 -0.2
v 0.3 0.3 -0.2
v 0.4 0.3 -0.2
v -0.1 0.3 -0.3
v 0 0.3 -0.3
v 0.2 0.3 -0.3
v 0.3 0.3 -0.3
v 0 0.4 0.2
v 0.2 0.4 0.2
v 0 0.4 0.1
v 0.2 0.4 0.1
v 0 0.4 -0.2
v 0.2 0.4 -0.2
v 0 0.4 -0.3
v 0.2 0.4 -0.3
v -0.1 0.6 0.2
v 0 0.6 0.2
v 0.2 0.6 0.2
v 0.3 0.6 0.2
v -0.2 0.6 0.1
v -0.1 0.6 0.1
v 0 0.6 0.1
v 0.2 0.6 0.1
v 0.3 0.6 0.1
v 0.4 0.6 0.1
v -0.6 0.6 0
v -0.5 0.6 0
v -0.2 0.6 0
v 0.4 0.6 0
v 0.7 0.6 0
v 0.8 0.6 0
v -0.6 0.6 -0.1
v -0.5 0.6 -0.1
v -0.2 0.6 -0.1
v 0.4 0.6 -0.1
v 0.7 0.6 -0.1
v 0.8 0.6 -0.1
v -0.2 0.6 -0.2
v -0.1 0.6 -0.2
v 0 0.6 -0.2
v 0.2 0.6 -0.2
v 0.3 0.6 -0.2
v 0.4 0.6 -0.2
v -0.1 0.6 -0.3
v 0 0.6 -0.3
v 0.2 0.6 -0.3
v 0.3 0.6 -0.3
v -0.2 0.8 -0.2
v -0.1 0.8 -0.2
v 0.3 0.8 -0.2
v 0.4 0.8 -0.2
v -0.2 0.8 -0.3
v 0.4 0.8 -0.3
v -0.1 0.9 0.2
v 0.3 0.9 0.2
v -0.1 0.9 0.1
v 0 0.9 0.1
v 0.2 0.9 0.1
v 0.3 0.9 0.1
v -0.3 1.2 0
v -0.2 1.2 0
v 0.4 1.2 0
v 0.5 1.2 0
v -0.3 1.2 -0.1
v -0.2 1.2 -0.1
v 0.4 1.2 -0.1
v 0.5 1.2 -0.1
v -0.4 1.3 0
v -0.3 1.3 0
v 0.5 1.3 0
v 0.6 1.3 0
v -0.4 1.3 -0.1
v -0.3 1.3 -0.1
v 0.5 1.3 -0.1
v 0.6 1.3 -0.1
v -0.1 0.1 0.1
v 0 0.1 0.1
v 0.2 0.1 0.1
v 0.3 0.1 0.1
v -0.1 0.1 0
v 0 0.1 0
v 0.2 0.1 0
v 0.3 0.1 0
v -0.1 0.4 0.2
v 0 0.4 0.2
v 0.2 0.4 0.2
v 0.3 0.4 0.2
v -0.2 0.4 0.1
v -0.1 0.4 0.1
v 0 0.4 0.1
v 0.2 0.4 0.1
v 0.3 0.4 0.1
v 0.4 0.4 0.1
v -0.2 0.4 -0.2
v -0.1 0.4 -0.2
v 0 0.4 -0.2
v 0.2 0.4 -0.2
v 0.3 0.4 -0.2
v 0.4 0.4 -0.2
v -0.1 0.4 -0.3
v 0 0.4 -0.3
v 0.2 0.4 -0.3
v 0.3 0.4 -0.3
v 0 0.6 0.2
v 0.2 0.6 0.2
v 0 0.6 0.1
v 0.2 0.6 0.1
v 0 0.6 -0.2
v 0.2 0.6 -0.2
v 0 0.6 -0.3
v 0.2 0.6 -0.3
v -0.1 0.7 0.2
v 0 0.7 0.2
v 0.2 0.7 0.2
v 0.3 0.7 0.2
v -0.1 0.7 0.1
v 0 0.7 0.1
v 0.2 0.7 0.1
v 0.3 0.7 0.1
v -0.6 0.7 0
v -0.5 0.7 0
v -0.2 0.7 0
v 0.4 0.7 0
v 0.7 0.7 0
v 0.8 0.7 0
v -0.6 0.7 -0.1
v -0.5 0.7 -0.1
v -0.2 0.7 -0.1
v 0.4 0.7 -0.1
v 0.7 0.7 -0.1
v 0.8 0.7 -0.1
v -0.1 0.7 -0.2
v 0 0.7 -0.2
v 0.2 0.7 -0.2
v 0.3 0.7 -0.2
v -0.1 0.7 -0.3
v 0 0.7 -0.3
v 0.2 0.7 -0.3
v 0.3 0.7 -0.3
v -0.2 0.9 -0.2
v -0.1 0.9 -0.2
v 0.3 0.9 -0.2
v 0.4 0.9 -0.2
v -0.2 0.9 -0.3
v -0.1 0.9 -0.3
v 0.3 0.9 -0.3
v 0.4 0.9 -0.3
v -0.1 1 0.2
v 0 1 0.2
v 0.2 1 0.2
v 0.3 1 0.2
v -0.1 1 0.1
v 0 1 0.1
v 0.2 1 0.1
v 0.3 1 0.1
v 0 1.1 0.2
v 0.2 1.1 0.2
v -0.2 1.1 0.1
v -0.1 1.1 0.1
v 0 1.1 0.1
v 0.2 1.1 0.1
v 0.3 1.1 0.1
v 0.4 1.1 0.1
v -0.2 1.1 0
v -0.1 1.1 0
v 0.3 1.1 0
v 0.4 1.1 0
v -0.2 1.1 -0.1
v -0.1 1.1 -0.1
v 0.3 1.1 -0.1
v 0.4 1.1 -0.1
v -0.2 1.1 -0.2
v -0.1 1.1 -0.2
v 0.3 1.1 -0.2
v 0.4 1.1 -0.2
v -0.1 1.1 -0.3
v 0.3 1.1 -0.3
v -0.1 1.2 0.1
v 0.3 1.2 0.1
v -0.1 1.2 0
v 0 1.2 0
v 0.2 1.2 0
v 0.3 1.2 0
v -0.1 1.2 -0.1
v 0 1.2 -0.1
v 0.2 1.2 -0.1
v 0.3 1.2 -0.1
v -0.1 1.2 -0.2
v 0.3 1.2 -0.2
v -0.2 1.3 0
v -0.1 1.3 0
v 0 1.3 0
v 0.2 1.3 0
v 0.3 1.3 0
v 0.4 1.3 0
v -0.2 1.3 -0.1
v -0.1 1.3 -0.1
v 0 1.3 -0.1
v 0.2 1.3 -0.1
v 0.3 1.3 -0.1
v 0.4 1.3 -0.1
v -0.3 1.4 0
v -0.2 1.4 0
v 0.4 1.4 0
v 0.5 1.4 0
v -0.3 1.4 -0.1
v -0.2 1.4 -0.1
v 0.4 1.4 -0.1
v 0.5 1.4 -0.1
v -0.4 1.5 0
v -0.3 1.5 0
v 0.5 1.5 0
v 0.6 1.5 0
v -0.4 1.5 -0.1
v -0.3 1.5 -0.1
v 0.5 1.5 -0.1
v 0.6 1.5 -0.1

# faces
f 3/1/1 2/1/1 1/1/1
f 4/1/1 2/1/1 3/1/1
f 7/3/1 6/3/1 5/3/1
f 8/3/1 6/3/1 7/3/1
f 11/3/1 10/3/1 9/3/1
f 12/3/1 10/3/1 11/3/1
f 15/6/1 14/6/1 13/6/1
f 16/6/1 14/6/1 15/6/1
f 21/2/1 18/2/1 17/2/1
f 22/2/1 18/2/1 21/2/1
f 23/2/1 20/2/1 19/2/1
f 24/2/1 20/2/1 23/2/1
f 25/6/1 22/6/1 21/6/1
f 25/6/1 23/6/1 22/6/1
f 25/6/1 24/6/1 23/6/1
f 26/6/1 24/6/1 25/6/1
f 28/5/1 26/5/1 25/5/1
f 28/5/1 27/5/1 26/5/1
f 29/5/1 27/5/1 28/5/1
f 30/5/1 28/5/1 25/5/1
f 31/5/1 28/5/1 30/5/1
f 32/5/1 28/5/1 31/5/1
f 33/5/1 28/5/1 32/5/1
f 34/3/1 32/3/1 31/3/1
f 35/3/1 32/3/1 34/3/1
f 38/4/1 37/4/1 36/4/1
f 39/4/1 37/4/1 38/4/1
f 40/4/1 37/4/1 39/4/1
f 41/4/1 37/4/1 40/4/1
f 44/1/1 41/1/1 40/1/1
f 45/1/1 41/1/1 44/1/1
f 48/6/1 43/6/1 42/6/1
f 49/6/1 43/6/1 48/6/1
f 50/6/1 47/6/1 46/6/1
f 51/6/1 47/6/1 50/6/1
f 53/2/1 50/2/1 49/2/1
f 54/2/1 50/2/1 53/2/1
f 56/6/1 53/6/1 52/6/1
f 57/6/1 53/6/1 56/6/1
f 58/6/1 55/6/1 54/6/1
f 59/6/1 55/6/1 58/6/1
f 64/7/1 61/7/1 60/7/1
f 65/7/1 61/7/1 64/7/1
f 69/5/1 63/5/1 62/5/1
f 70/5/1 63/5/1 69/5/1
f 71/5/1 67/5/1 66/5/1
f 72/5/1 67/5/1 71/5/1
f 73/5/1 69/5/1 68/5/1
f 74/5/1 69/5/1 73/5/1
f 79/5/1 76/5/1 75/5/1
f 80/5/1 76/5/1 79/5/1
f 81/5/1 78/5/1 77/5/1
f 82/5/1 78/5/1 81/5/1
f 85/7/1 84/7/1 83/7/1
f 86/7/1 84/7/1 85/7/1
f 89/7/1 88/7/1 87/7/1
f 90/7/1 88/7/1 89/7/1
f 93/4/1 92/4/1 91/4/1
f 94/4/1 92/4/1 93/4/1
f 95/4/1 92/4/1 94/4/1
f 96/4/1 92/4/1 95/4/1
f 99/1/1 96/1/1 95/1/1
f 100/1/1 96/1/1 99/1/1
f 103/6/1 98/6/1 97/6/1
f 104/6/1 98/6/1 103/6/1
f 105/6/1 102/6/1 101/6/1
f 106/6/1 102/6/1 105/6/1
f 111/6/1 108/6/1 107/6/1
f 112/6/1 108/6/1 111/6/1
f 113/6/1 110/6/1 109/6/1
f 114/6/1 110/6/1 113/6/1
f 117/3/1 116/3/1 115/3/1
f 118/3/1 116/3/1 117/3/1
f 121/3/1 120/3/1 119/3/1
f 122/3/1 120/3/1 121/3/1
f 125/3/1 124/3/1 123/3/1
f 126/3/1 124/3/1 125/3/1
f 127/3/2 128/3/2 129/3/2
f 129/3/2 128/3/2 130/3/2
f 131/3/2 132/3/2 133/3/2
f 133/3/2 132/3/2 134/3/2
f 135/3/2 136/3/2 137/3/2
f 137/3/2 136/3/2 138/3/2
f 139/4/2 140/4/2 141/4/2
f 141/4/2 140/4/2 142/4/2
f 142/4/2 140/4/2 143/4/2
f 143/4/2 140/4/2 144/4/2
f 143/1/2 144/1/2 147/1/2
f 147/1/2 144/1/2 148/1/2
f 145/6/2 146/6/2 151/6/2
f 151/6/2 146/6/2 152/6/2
f 149/6/2 150/6/2 153/6/2
f 153/6/2 150/6/2 154/6/2
f 155/6/2 156/6/2 159/6/2
f 159/6/2 156/6/2 160/6/2
f 157/6/2 158/6/2 161/6/2
f 161/6/2 158/6/2 162/6/2
f 163/5/2 164/5/2 167/5/2
f 167/5/2 164/5/2 168/5/2
f 165/5/2 166/5/2 169/5/2
f 169/5/2 166/5/2 170/5/2
f 171/7/2 172/7/2 173/7/2
f 173/7/2 172/7/2 174/7/2
f 175/7/2 176/7/2 177/7/2
f 177/7/2 176/7/2 178/7/2
f 179/4/2 180/4/2 181/4/2
f 181/4/2 180/4/2 182/4/2
f 182/4/2 180/4/2 183/4/2
f 183/4/2 180/4/2 184/4/2
f 183/1/2 184/1/2 187/1/2
f 187/1/2 184/1/2 188/1/2
f 185/6/2 186/6/2 191/6/2
f 191/6/2 186/6/2 192/6/2
f 189/6/2 190/6/2 193/6/2
f 193/6/2 190/6/2 194/6/2
f 192/2/2 193/2/2 196/2/2
f 196/2/2 193/2/2 197/2/2
f 195/6/2 196/6/2 199/6/2
f 199/6/2 196/6/2 200/6/2
f 197/6/2 198/6/2 201/6/2
f 201/6/2 198/6/2 202/6/2
f 203/7/2 204/7/2 207/7/2
f 207/7/2 204/7/2 208/7/2
f 205/5/2 206/5/2 212/5/2
f 212/5/2 206/5/2 213/5/2
f 209/5/2 210/5/2 214/5/2
f 214/5/2 210/5/2 215/5/2
f 211/5/2 212/5/2 216/5/2
f 216/5/2 212/5/2 217/5/2
f 218/6/2 219/6/2 220/6/2
f 220/6/2 219/6/2 221/6/2
f 222/2/2 223/2/2 226/2/2
f 226/2/2 223/2/2 227/2/2
f 224/2/2 225/2/2 228/2/2
f 228/2/2 225/2/2 229/2/2
f 226/6/2 227/6/2 230/6/2
f 227/6/2 228/6/2 230/6/2
f 228/6/2 229/6/2 230/6/2
f 230/6/2 229/6/2 231/6/2
f 230/5/2 231/5/2 233/5/2
f 231/5/2 232/5/2 233/5/2
f 233/5/2 232/5/2 234/5/2
f 230/5/2 233/5/2 235/5/2
f 235/5/2 233/5/2 236/5/2
f 236/5/2 233/5/2 237/5/2
f 237/5/2 233/5/2 238/5/2
f 236/3/2 237/3/2 239/3/2
f 239/3/2 237/3/2 240/3/2
f 241/3/2 242/3/2 243/3/2
f 243/3/2 242/3/2 244/3/2
f 245/3/2 246/3/2 247/3/2
f 247/3/2 246/3/2 248/3/2
f 249/1/2 250/1/2 251/1/2
f 251/1/2 250/1/2 252/1/2
f 259/6/3 254/6/3 253/6/3
f 260/6/3 254/6/3 259/6/3
f 261/6/3 256/6/3 255/6/3
f 262/6/3 256/6/3 261/6/3
f 263/7/3 258/7/3 257/7/3
f 266/5/3 261/5/3 260/5/3
f 267/5/3 261/5/3 266/5/3
f 269/7/3 264/7/3 263/7/3
f 269/7/3 263/7/3 257/7/3
f 270/7/3 264/7/3 269/7/3
f 271/6/3 266/6/3 265/6/3
f 272/6/3 266/6/3 271/6/3
f 273/6/3 268/6/3 267/6/3
f 274/6/3 268/6/3 273/6/3
f 275/7/3 269/7/3 257/7/3
f 276/7/3 269/7/3 275/7/3
f 285/6/3 278/6/3 277/6/3
f 286/6/3 278/6/3 285/6/3
f 287/2/3 280/2/3 279/2/3
f 288/6/3 281/6/3 280/6/3
f 288/2/3 280/2/3 287/2/3
f 289/5/3 282/5/3 281/5/3
f 289/6/3 281/6/3 288/6/3
f 290/5/3 282/5/3 289/5/3
f 291/5/3 282/5/3 290/5/3
f 292/5/3 282/5/3 291/5/3
f 294/4/3 284/4/3 283/4/3
f 295/4/3 284/4/3 294/4/3
f 297/2/3 287/2/3 286/2/3
f 298/2/3 287/2/3 297/2/3
f 299/1/3 289/1/3 288/1/3
f 300/8/3 290/8/3 289/8/3
f 300/1/3 289/1/3 299/1/3
f 301/8/3 290/8/3 300/8/3
f 302/5/3 293/5/3 292/5/3
f 302/5/3 292/5/3 291/5/3
f 303/5/3 293/5/3 302/5/3
f 306/2/3 297/2/3 296/2/3
f 307/2/3 297/2/3 306/2/3
f 308/2/3 299/2/3 298/2/3
f 309/1/3 301/1/3 300/1/3
f 309/1/3 300/1/3 299/1/3
f 309/2/3 299/2/3 308/2/3
f 310/1/3 301/1/3 309/1/3
f 311/1/3 301/1/3 310/1/3
f 313/5/3 293/5/3 303/5/3
f 314/4/3 305/4/3 304/4/3
f 315/4/3 305/4/3 314/4/3
f 317/2/3 308/2/3 307/2/3
f 318/2/3 308/2/3 317/2/3
f 319/1/3 310/1/3 309/1/3
f 320/8/3 311/8/3 310/8/3
f 320/1/3 310/1/3 319/1/3
f 321/8/3 311/8/3 320/8/3
f 322/5/3 313/5/3 312/5/3
f 323/5/3 293/5/3 313/5/3
f 323/5/3 313/5/3 322/5/3
f 324/5/3 293/5/3 323/5/3
f 325/6/3 317/6/3 316/6/3
f 326/6/3 317/6/3 325/6/3
f 327/2/3 319/2/3 318/2/3
f 328/6/3 320/6/3 319/6/3
f 328/2/3 319/2/3 327/2/3
f 329/5/3 321/5/3 320/5/3
f 329/6/3 320/6/3 328/6/3
f 329/5/3 322/5/3 321/5/3
f 329/5/3 323/5/3 322/5/3
f 330/5/3 323/5/3 329/5/3
f 333/1/3 332/1/3 331/1/3
f 334/1/3 332/1/3 333/1/3
f 338/3/3 336/3/3 335/3/3
f 339/3/3 336/3/3 338/3/3
f 340/3/3 336/3/3 339/3/3
f 341/2/3 334/2/3 333/2/3
f 342/2/3 334/2/3 341/2/3
f 344/3/3 338/3/3 337/3/3
f 344/3/3 339/3/3 338/3/3
f 345/3/3 339/3/3 344/3/3
f 346/3/3 339/3/3 345/3/3
f 350/3/3 344/3/3 343/3/3
f 350/3/3 345/3/3 344/3/3
f 351/3/3 345/3/3 350/3/3
f 352/3/3 345/3/3 351/3/3
f 353/4/3 348/4/3 347/4/3
f 354/1/3 349/1/3 348/1/3
f 354/4/3 348/4/3 353/4/3
f 355/1/3 349/1/3 354/1/3
f 361/7/3 357/7/3 356/7/3
f 362/7/3 357/7/3 361/7/3
f 363/4/3 359/4/3 358/4/3
f 364/1/3 360/1/3 359/1/3
f 364/4/3 359/4/3 363/4/3
f 365/1/3 360/1/3 364/1/3
f 371/3/3 368/3/3 367/3/3
f 371/3/3 367/3/3 366/3/3
f 372/3/3 368/3/3 371/3/3
f 373/3/3 368/3/3 372/3/3
f 375/3/3 373/3/3 372/3/3
f 375/3/3 374/3/3 373/3/3
f 376/3/3 374/3/3 375/3/3
f 377/3/3 374/3/3 376/3/3
f 379/3/3 377/3/3 376/3/3
f 379/3/3 378/3/3 377/3/3
f 380/3/3 378/3/3 379/3/3
f 381/2/3 370/2/3 369/2/3
f 382/2/3 370/2/3 381/2/3
f 383/1/3 382/1/3 381/1/3
f 384/1/3 382/1/3 383/1/3
f 385/1/4 386/1/4 387/1/4
f 387/1/4 386/1/4 388/1/4
f 389/3/4 390/3/4 392/3/4
f 392/3/4 390/3/4 393/3/4
f 393/3/4 390/3/4 394/3/4
f 387/2/4 388/2/4 395/2/4
f 395/2/4 388/2/4 396/2/4
f 391/3/4 392/3/4 398/3/4
f 392/3/4 393/3/4 398/3/4
f 398/3/4 393/3/4 399/3/4
f 399/3/4 393/3/4 400/3/4
f 397/3/4 398/3/4 404/3/4
f 398/3/4 399/3/4 404/3/4
f 404/3/4 399/3/4 405/3/4
f 405/3/4 399/3/4 406/3/4
f 401/4/4 402/4/4 407/4/4
f 402/1/4 403/1/4 408/1/4
f 407/4/4 402/4/4 408/4/4
f 408/1/4 403/1/4 409/1/4
f 410/7/4 411/7/4 415/7/4
f 415/7/4 411/7/4 416/7/4
f 412/4/4 413/4/4 417/4/4
f 413/1/4 414/1/4 418/1/4
f 417/4/4 413/4/4 418/4/4
f 418/1/4 414/1/4 419/1/4
f 421/3/4 422/3/4 425/3/4
f 420/3/4 421/3/4 425/3/4
f 425/3/4 422/3/4 426/3/4
f 426/3/4 422/3/4 427/3/4
f 426/3/4 427/3/4 429/3/4
f 427/3/4 428/3/4 429/3/4
f 429/3/4 428/3/4 430/3/4
f 430/3/4 428/3/4 431/3/4
f 430/3/4 431/3/4 433/3/4
f 431/3/4 432/3/4 433/3/4
f 433/3/4 432/3/4 434/3/4
f 423/2/4 424/2/4 435/2/4
f 435/2/4 424/2/4 436/2/4
f 435/1/4 436/1/4 437/1/4
f 437/1/4 436/1/4 438/1/4
f 439/6/4 440/6/4 446/6/4
f 446/6/4 440/6/4 447/6/4
f 441/2/4 442/2/4 448/2/4
f 442/6/4 443/6/4 449/6/4
f 448/2/4 442/2/4 449/2/4
f 449/6/4 443/6/4 450/6/4
f 444/5/4 445/5/4 451/5/4
f 451/5/4 445/5/4 452/5/4
f 447/2/4 448/2/4 455/2/4
f 455/2/4 448/2/4 456/2/4
f 449/1/4 450/1/4 457/1/4
f 454/2/4 455/2/4 458/2/4
f 458/2/4 455/2/4 459/2/4
f 456/2/4 457/2/4 460/2/4
f 457/1/4 450/1/4 461/1/4
f 460/2/4 457/2/4 461/2/4
f 459/2/4 460/2/4 463/2/4
f 463/2/4 460/2/4 464/2/4
f 461/1/4 450/1/4 465/1/4
f 465/1/4 450/1/4 466/1/4
f 452/5/4 453/5/4 468/5/4
f 468/5/4 453/5/4 469/5/4
f 462/6/4 463/6/4 470/6/4
f 470/6/4 463/6/4 471/6/4
f 464/2/4 465/2/4 472/2/4
f 465/6/4 466/6/4 473/6/4
f 472/2/4 465/2/4 473/2/4
f 473/6/4 466/6/4 474/6/4
f 467/5/4 468/5/4 475/5/4
f 475/5/4 468/5/4 476/5/4
f 477/5/4 478/5/4 483/5/4
f 479/6/4 480/6/4 485/6/4
f 485/6/4 480/6/4 486/6/4
f 481/6/4 482/6/4 487/6/4
f 487/6/4 482/6/4 488/6/4
f 486/5/4 487/5/4 490/5/4
f 490/5/4 487/5/4 491/5/4
f 489/6/4 490/6/4 493/6/4
f 493/6/4 490/6/4 494/6/4
f 491/6/4 492/6/4 495/6/4
f 495/6/4 492/6/4 496/6/4
f 483/5/4 484/5/4 497/5/4
f 477/5/4 483/5/4 497/5/4
f 497/5/4 484/5/4 498/5/4
f 477/5/4 497/5/4 499/5/4
f 499/5/4 497/5/4 500/5/4
f 505/4/5 502/4/5 501/4/5
f 506/4/5 502/4/5 505/4/5
f 507/4/5 504/4/5 503/4/5
f 508/4/5 504/4/5 507/4/5
f 514/6/5 510/6/5 509/6/5
f 515/6/5 510/6/5 514/6/5
f 516/6/5 512/6/5 511/6/5
f 517/6/5 512/6/5 516/6/5
f 519/6/5 515/6/5 514/6/5
f 519/6/5 514/6/5 513/6/5
f 520/2/5 516/2/5 515/2/5
f 520/6/5 515/6/5 519/6/5
f 521/6/5 518/6/5 517/6/5
f 521/2/5 516/2/5 520/2/5
f 521/6/5 517/6/5 516/6/5
f 522/6/5 518/6/5 521/6/5
f 523/6/5 519/6/5 513/6/5
f 524/2/5 521/2/5 520/2/5
f 525/2/5 521/2/5 524/2/5
f 526/6/5 518/6/5 522/6/5
f 527/6/5 523/6/5 513/6/5
f 527/6/5 524/6/5 523/6/5
f 528/6/5 524/6/5 527/6/5
f 529/2/5 525/2/5 524/2/5
f 529/6/5 524/6/5 528/6/5
f 530/6/5 526/6/5 525/6/5
f 530/2/5 525/2/5 529/2/5
f 531/6/5 518/6/5 526/6/5
f 531/6/5 526/6/5 530/6/5
f 532/6/5 518/6/5 531/6/5
f 533/6/5 529/6/5 528/6/5
f 534/6/5 529/6/5 533/6/5
f 535/6/5 531/6/5 530/6/5
f 536/6/5 531/6/5 535/6/5
f 539/5/5 538/5/5 537/5/5
f 540/5/5 538/5/5 539/5/5
f 543/5/5 542/5/5 541/5/5
f 544/5/5 542/5/5 543/5/5
f 550/6/5 546/6/5 545/6/5
f 551/6/5 546/6/5 550/6/5
f 552/6/5 548/6/5 547/6/5
f 553/6/5 548/6/5 552/6/5
f 557/2/5 550/2/5 549/2/5
f 558/2/5 554/2/5 553/2/5
f 561/1/5 556/1/5 555/1/5
f 562/2/5 557/2/5 556/2/5
f 562/1/5 556/1/5 561/1/5
f 563/2/5 550/2/5 557/2/5
f 563/2/5 557/2/5 562/2/5
f 564/2/5 558/2/5 553/2/5
f 564/2/5 559/2/5 558/2/5
f 565/1/5 560/1/5 559/1/5
f 565/2/5 559/2/5 564/2/5
f 566/1/5 560/1/5 565/1/5
f 567/2/5 550/2/5 563/2/5
f 568/2/5 550/2/5 567/2/5
f 571/2/5 564/2/5 553/2/5
f 572/2/5 564/2/5 571/2/5
f 573/6/5 569/6/5 568/6/5
f 574/6/5 569/6/5 573/6/5
f 575/6/5 571/6/5 570/6/5
f 576/6/5 571/6/5 575/6/5
f 581/5/5 578/5/5 577/5/5
f 581/5/5 580/5/5 579/5/5
f 581/5/5 579/5/5 578/5/5
f 582/5/5 580/5/5 581/5/5
f 585/7/5 584/7/5 583/7/5
f 586/7/5 584/7/5 585/7/5
f 587/7/5 584/7/5 586/7/5
f 588/7/5 584/7/5 587/7/5
f 593/3/5 590/3/5 589/3/5
f 594/3/5 590/3/5 593/3/5
f 595/3/5 592/3/5 591/3/5
f 596/3/5 592/3/5 595/3/5
f 601/3/5 598/3/5 597/3/5
f 602/3/5 598/3/5 601/3/5
f 603/3/5 600/3/5 599/3/5
f 604/3/5 600/3/5 603/3/5
f 605/4/6 606/4/6 609/4/6
f 609/4/6 606/4/6 610/4/6
f 607/4/6 608/4/6 611/4/6
f 611/4/6 608/4/6 612/4/6
f 613/6/6 614/6/6 618/6/6
f 618/6/6 614/6/6 619/6/6
f 615/6/6 616/6/6 620/6/6
f 620/6/6 616/6/6 621/6/6
f 617/6/6 618/6/6 623/6/6
f 623/6/6 618/6/6 624/6/6
f 621/6/6 622/6/6 627/6/6
f 627/6/6 622/6/6 628/6/6
f 624/6/6 625/6/6 629/6/6
f 629/6/6 625/6/6 630/6/6
f 626/6/6 627/6/6 631/6/6
f 631/6/6 627/6/6 632/6/6
f 633/5/6 634/5/6 635/5/6
f 635/5/6 634/5/6 636/5/6
f 637/5/6 638/5/6 639/5/6
f 639/5/6 638/5/6 640/5/6
f 641/6/6 642/6/6 645/6/6
f 645/6/6 642/6/6 646/6/6
f 643/6/6 644/6/6 647/6/6
f 647/6/6 644/6/6 648/6/6
f 649/1/6 650/1/6 655/1/6
f 650/2/6 651/2/6 656/2/6
f 655/1/6 650/1/6 656/1/6
f 656/2/6 651/2/6 657/2/6
f 652/2/6 653/2/6 658/2/6
f 653/1/6 654/1/6 659/1/6
f 658/2/6 653/2/6 659/2/6
f 659/1/6 654/1/6 660/1/6
f 661/6/6 662/6/6 665/6/6
f 665/6/6 662/6/6 666/6/6
f 663/6/6 664/6/6 667/6/6
f 667/6/6 664/6/6 668/6/6
f 669/5/6 670/5/6 673/5/6
f 673/5/6 670/5/6 674/5/6
f 671/5/6 672/5/6 675/5/6
f 675/5/6 672/5/6 676/5/6
f 677/7/6 678/7/6 681/7/6
f 681/7/6 678/7/6 682/7/6
f 679/7/6 680/7/6 683/7/6
f 683/7/6 680/7/6 684/7/6
f 685/7/6 686/7/6 689/7/6
f 689/7/6 686/7/6 690/7/6
f 687/5/6 688/5/6 693/5/6
f 693/5/6 688/5/6 694/5/6
f 691/5/6 692/5/6 695/5/6
f 695/5/6 692/5/6 696/5/6
f 697/5/6 698/5/6 701/5/6
f 701/5/6 698/5/6 702/5/6
f 699/5/6 700/5/6 703/5/6
f 703/5/6 700/5/6 704/5/6
f 702/5/6 703/5/6 705/5/6
f 705/5/6 703/5/6 706/5/6
f 707/5/6 708/5/6 709/5/6
f 709/5/6 708/5/6 710/5/6
f 710/5/6 708/5/6 711/5/6
f 711/5/6 708/5/6 712/5/6
f 709/5/6 710/5/6 713/5/6
f 713/5/6 710/5/6 714/5/6
f 711/5/6 712/5/6 715/5/6
f 715/5/6 712/5/6 716/5/6
f 713/5/6 714/5/6 717/5/6
f 714/5/6 715/5/6 717/5/6
f 715/5/6 716/5/6 717/5/6
f 717/5/6 716/5/6 718/5/6
f 719/3/6 720/3/6 725/3/6
f 725/3/6 720/3/6 726/3/6
f 721/7/6 722/7/6 727/7/6
f 727/7/6 722/7/6 728/7/6
f 723/3/6 724/3/6 729/3/6
f 729/3/6 724/3/6 730/3/6
f 731/3/6 732/3/6 735/3/6
f 735/3/6 732/3/6 736/3/6
f 733/3/6 734/3/6 737/3/6
f 737/3/6 734/3/6 738/3/6
f 739/3/6 740/3/6 743/3/6
f 743/3/6 740/3/6 744/3/6
f 741/3/6 742/3/6 745/3/6
f 745/3/6 742/3/6 746/3/6
